<svg version="1" xmlns="http://www.w3.org/2000/svg" width="613.333" height="613.333" viewBox="0 0 460.000000 460.000000"><path d="M297.4 55.8c-7.9 7.3-13 11.9-18.1 16-2.3 1.8-5.5 4.5-7.1 6-1.7 1.5-3.7 3.1-4.4 3.7-.7.5-3.2 2.6-5.4 4.5-7.8 6.8-9.2 7.8-9.7 7.3-.3-.2-.8.5-1.2 1.7-.5 1.7-1 1.9-2.1.9-.8-.6-1.5-.9-1.5-.5-.1.3-.2 1-.3 1.4-.1 1.2-4.9 6.2-5.9 6.2-.4 0-2.2 1.4-4 3-1.8 1.7-3.8 2.8-4.4 2.5-.7-.2-1.2 0-1 .4.2.9-2 3.1-7.4 7.1-1.8 1.4-4.1 3.3-5.1 4.2-1 1-2.1 1.8-2.4 1.8-.3 0-1.6.9-2.8 2-1.1 1-5 4.1-8.6 6.7-3.6 2.6-6.7 5-7 5.3-.3.4-4.1 3.3-8.5 6.5s-8.2 6.1-8.5 6.4c-.3.3-2.7 2.2-5.5 4.1-2.7 1.9-5.7 4-6.5 4.7-5.7 4.6-12.6 9.3-13.7 9.3-.7 0-1.3.5-1.3 1 0 1.7-5.4 6-6.8 5.5-.7-.3-1.1-.1-.8.3.6 1-16.4 17.8-17.6 17.4-.5-.1-.7.2-.3.7.8 1.3-2.6 5.2-3.8 4.4-.6-.4-.7-.1-.2.6.4.8-.1 2.5-1.4 4.2-2.1 2.8-6.5 12.9-5.6 12.9.2 0-.2 1.7-.9 3.7-.7 2.1-1.2 5.9-1.1 8.5.1 2.7-.2 4.8-.8 4.8-.6 0-.6.5 0 1.2s1.6 4.2 2.2 7.8c3.3 16.9 15.3 31 29.8 34.9 3.3.9 4.1 1.5 3.7 2.9-.5 1.5-.4 1.5.5.1.8-1.3 2-1.4 5.6-.9 5.9.9 22.1 0 24.3-1.4.7-.4 5.2-1.2 11.9-2 1.5-.2 5.3-1.1 8.3-2 3-.8 6.6-1.7 8-1.9 1.4-.2 3.7-.9 5.1-1.4 1.4-.6 4.1-1.2 6-1.4 1.9-.2 3.9-.6 4.4-1 1.9-1.3 8.5-2.7 8.5-1.8 0 .5-2.7 3.6-6 6.9-3.3 3.3-6 6.2-6 6.5 0 .2-1 1.5-2.3 2.9-1.2 1.3-2.9 3.7-3.7 5.3-.8 1.5-2.1 3.4-2.7 4.1-.7.7-1.3 1.8-1.3 2.3 0 .6-.5.7-1.2.3-.6-.4-.8-.3-.5.3.7 1.1-3.6 12.7-4.4 11.9-.2-.2-.5 1.2-.5 3.1-.1 1.9-.5 3.8-1 4.2-.5.3-1 1.9-1.1 3.6-.5 6.2-.5 23.1.1 25.4 2 8.5 7.8 21.4 11.2 24.8.8.8 1.4 1.8 1.4 2.2 0 2.6 20.9 21.1 23.9 21.1.5 0 1.1.3 1.3.8.3.6 30.4 16.3 31.1 16.1.1 0 1.5.4 3 1 5.1 2 7.7 2.4 7.7 1.2 0-.6-.4-1.1-.9-1.1-1.1 0-17.1-15.2-17.1-16.3 0-.4-1.1-2-2.5-3.5s-2.5-3.1-2.5-3.5c0-.5-.9-2.2-2.1-3.8-1.1-1.6-1.7-2.9-1.3-2.9.3 0 .2-.6-.4-1.3-2.2-2.6-4.9-12.6-3.8-13.8.8-.9.8-1-.1-.5-1.4.8-1.5.1-1.5-11.4 0-11.6.1-13.2 1-12.6.5.3.9-.1.9-.9s-.4-1.5-.8-1.5-.1-1.7.8-3.7c.8-2.1 1.7-4.9 2-6.2.6-3.4 1.2-4.2 2.6-3.5.9.5.9.4 0-.6s-.4-2.2 2.4-5.6c2-2.4 4-4.1 4.5-3.8.5.3.7.2.6-.3-.5-1.4 5.3-6.3 6.6-5.6.6.3.8.3.4-.2-.4-.4.5-2 2-3.4 4.7-4.4 12-10.3 12.9-10.3.4-.1 1.4-.9 2.1-1.9.7-1.1 2.5-2.5 4-3.3 1.5-.8 3.6-2.3 4.7-3.3 6.5-5.8 12.6-10.3 14-10.3.9 0 1.3-.5 1-1-.3-.6-.3-1 .2-1 .4 0 2.5-1.6 4.7-3.5 2.1-1.9 4.2-3.2 4.7-2.9.5.3.6-.2.3-1-.4-1-.1-1.6.7-1.6 2 0 13-12.1 16.9-18.6 3-4.9 3.5-6.8 3.7-12.4.2-10.5-3.7-16.8-14.1-22.9-2.3-1.3-4.5-2.4-5.1-2.5-.5-.1-2.6-.7-4.5-1.4-1.9-.6-4.8-1.3-6.5-1.6-1.6-.2-3.2-.5-3.5-.6-.9-.3-10.4.1-17 .7-3.6.3-7.9.7-9.7.7-1.7.1-2.9.4-2.6.8.2.5-.4.8-1.4.9-1 0-2.5.2-3.3.4-2.8.6-8.5 1.7-10 2-.8.1-2.6.7-4 1.2-1.9.8-2.8.7-3.7-.6-1.2-1.5-1.3-1.5-.7 0 .4 1.2-.4 1.8-2.8 2.4-1.8.4-3.7.7-4.1.6-.4-.1-1.6.3-2.7.9-1.3.7-2.1.7-2.6-.1-.4-.7-.9-.7-1.3-.2-1.2 1.9-6.8 3.2-8.1 2-.9-.8-1.1-.8-.7-.1.4.8-1.2 1.4-4.6 1.9-2.8.4-6.2.9-7.4 1.1-1.3.2-3.5.6-5 .8-1.6.3-2.8.5-2.8.6 0 .1-1.6.4-3.5.6-1.9.2-4.8.5-6.5.8-1.6.3-5 .8-7.5 1.2l-4.5.6 3.9-3.6c2.1-1.9 4.3-3.3 4.9-2.9.6.3.7.1.4-.4-.4-.6 1.4-2.8 3.9-4.9 2.5-2.2 5.8-5.1 7.2-6.7 1.4-1.5 2.7-2.6 2.9-2.4.1.2 2.4-1.6 5-4s5.2-4.2 5.9-3.9c.8.3 1.6 0 2-.6.4-.7.3-.8-.4-.4s-1.2.3-1.2-.1c0-.9 3.1-3.1 4.2-2.9.4.1 1.4-.8 2.2-2 .8-1.1 3.4-3.3 5.8-5 2.3-1.6 5.3-4 6.5-5.2 1.3-1.4 2.7-2.1 3.4-1.6.7.4.9.3.6-.3-.4-.6 0-1.6.8-2.3 1.2-1 1.5-1 1.6.1 0 1 .3.9.7-.2 1-2.5 10.1-9.1 11.4-8.3.6.4.8.3.5-.3-.4-.6 2.6-3.8 6.6-7.1 8.3-6.9 17-15.3 21.2-20.7 1.7-2 3.8-4.7 4.8-5.9 1-1.1 2.6-3.3 3.5-4.9.9-1.5 2-2.7 2.5-2.7.4 0 .5-.5.2-1-.3-.6-.1-1 .4-1 .6 0 1.1-.6 1.1-1.4 0-.8.9-3 2-4.8 9.3-15.8 10.2-39.2 2.3-55.3-2.5-5-5.1-8.5-6.2-8.5-.3 0-3.4 2.6-6.7 5.8zM188 116c-.9.6-1 1-.3 1 .6 0 1.5-.5 1.8-1 .8-1.2.4-1.2-1.5 0z"/><path d="M278.9 155.7c-1.3 1.6-1.2 1.7.4.4 1.6-1.3 2.1-2.1 1.3-2.1-.2 0-1 .8-1.7 1.7zM279.6 163.3c.3 1 .9 1.5 1.2 1.2.3-.3 0-1.1-.7-1.8-1-.9-1.1-.8-.5.6zM233.6 194.2c.3.5 1 .6 1.5.3 1.3-.9 1.1-1.2-.6-1.2-.8 0-1.2.4-.9.9zM280 196c-.9.6-1 1-.3 1 .6 0 1.5-.5 1.8-1 .8-1.2.4-1.2-1.5 0zM221.9 201.2c-.5 1.8-.6 3.8-.1 3.4.7-.8 1.2-3.6.6-3.6-.2 0-.4.1-.5.2zM224.6 202.2c.3.5 1 .6 1.5.3 1.3-.9 1.1-1.2-.6-1.2-.8 0-1.2.4-.9.9zM229.6 201.8c-.3.5.1.9.9.9s1.2-.4.9-.9c-.3-.4-.7-.8-.9-.8-.2 0-.6.4-.9.8zM241.5 204c.3.5.8 1 1.1 1 .2 0 .4-.5.4-1 0-.6-.5-1-1.1-1-.5 0-.7.4-.4 1zM232 208c-.9.6-1 1-.3 1 .6 0 1.5-.5 1.8-1 .8-1.2.4-1.2-1.5 0zM225.9 209.2c-.5 1.8-.6 3.8-.1 3.4.7-.8 1.2-3.6.6-3.6-.2 0-.4.1-.5.2zM237.4 210.4c.1.8.5 1.8.8 2.2.4.3.5-.1.4-1-.1-.8-.5-1.8-.8-2.2-.4-.3-.5.1-.4 1zM240.6 210.2c.3.5 1 .6 1.5.3 1.3-.9 1.1-1.2-.6-1.2-.8 0-1.2.4-.9.9zM213 214c0 .5.5 1 1.1 1 .5 0 .7-.5.4-1-.3-.6-.8-1-1.1-1-.2 0-.4.4-.4 1zM217.5 214c-.3.5-.1 1 .4 1 .6 0 1.1-.5 1.1-1 0-.6-.2-1-.4-1-.3 0-.8.4-1.1 1zM199 218c0 .5.5 1 1.1 1 .5 0 .7-.5.4-1-.3-.6-.8-1-1.1-1-.2 0-.4.4-.4 1zM218 272c-.9.6-1 1-.3 1 .6 0 1.5-.5 1.8-1 .8-1.2.4-1.2-1.5 0zM222.5 272.1c-.3.4.2.6 1 .5 2.1-.3 2.8-1.3 1-1.3-.9 0-1.8.4-2 .8zM213 276c0 .5.5 1 1.1 1 .5 0 .7-.5.4-1-.3-.6-.8-1-1.1-1-.2 0-.4.4-.4 1zM174.5 294c-.3.6.1.7.9.4 1.8-.7 2.1-1.4.7-1.4-.6 0-1.3.4-1.6 1zM279.6 308.7c-.6 1.4-.5 1.5.5.6.7-.7 1-1.5.7-1.8-.3-.3-.9.2-1.2 1.2z"/></svg>